<?xml version="1.0" encoding="UTF-8" standalone="no"?>
<!-- Created with Inkscape (http://www.inkscape.org/) -->

<svg
   width="9.7271204mm"
   height="3.0000024mm"
   viewBox="0 0 36.76392 11.338592"
   version="1.1"
   id="svg1"
   xmlns="http://www.w3.org/2000/svg"
   xmlns:svg="http://www.w3.org/2000/svg">
  <defs
     id="defs1" />
  <g
     id="layer1"
     transform="translate(-94.488199,-188.97637)">
    <path
       style="font-family:Guisol;-inkscape-font-specification:Guisol;fill-rule:evenodd;stroke-width:0.997565"
       d="m 99.97219,188.97639 h -4.536 c -0.528,0 -0.948,0.41796 -0.948,0.93145 v 9.47568 c 0,0.5135 0.42,0.93145 0.948,0.93145 h 4.536 c 0.516,0 0.936,-0.41795 0.936,-0.93145 v -1.79124 h -2.82 v 0.60902 h -0.78 v -7.11124 h 0.78 v 0.60902 h 2.82 v -1.79124 c 0,-0.51349 -0.42,-0.93145 -0.936,-0.93145 z m 4.29598,6.59178 h 1.176 l 0.132,0.96727 h 3.06 l -1.38,-7.55905 h -4.788 l -1.392,7.55905 h 3.06 z m 0.288,-2.11367 0.3,-2.16143 0.3,2.16143 z m 9.90001,4.84234 h 0.084 c 0.288,0.0119 0.552,-0.15524 0.684,-0.40602 0.072,-0.13136 0.108,-0.2866 0.108,-0.44184 v -3.76161 c 0,-0.51349 -0.42,-0.93145 -0.936,-0.93145 h -5.472 v 7.55905 h 2.82 v -1.9226 h 0.156 l 0.768,1.9226 h 2.76 z m -1.932,-2.01814 h -0.78 v -1.40911 h 0.78 z m 12.87689,-7.30231 h -16.45971 v 2.59133 h 7.26029 v 8.74725 h 2.82 v -8.74725 h 6.37942 z m -0.0139,3.77953 h -5.448 v 7.55905 h 5.448 v -2.11367 h -2.628 v -0.60902 h 2.628 v -2.11367 h -2.628 v -0.60902 h 2.628 z m 5.86494,4.96772 h -2.136 v -8.74725 h -2.82 v 11.33858 h 4.956 z"
       id="text1"
       aria-label="CARTEL" />
    <path
       style="fill:#000000;fill-rule:evenodd;stroke-width:0.913163;-inkscape-stroke:none"
       d="m 101.71446,197.59359 h 6.30198 v 2.72138 h -6.30198 z"
       id="path3" />
  </g>
</svg>
