<?xml version="1.0" encoding="UTF-8" standalone="no"?>
<!-- Created with Inkscape (http://www.inkscape.org/) -->

<svg
   width="840"
   height="240"
   viewBox="0 0 840 240"
   version="1.1"
   id="svg1"
   xmlns="http://www.w3.org/2000/svg"
   xmlns:svg="http://www.w3.org/2000/svg">
  <defs
     id="defs1" />
  <g
     id="layer1"
     transform="translate(-70,-89.999735)">
    <path
       style="fill:#000000;fill-rule:evenodd;-inkscape-stroke:none"
       d="m 150,50 c -13.33333,0 -26.66666,0 -46.66693,0 C 83.3328,50 56.666667,50 43.333333,63.3336 30,76.6672 30,103.33333 30,130.00027 30,156.6672 30,183.3328 30,210 c 0,26.6672 0,53.3328 13.3336,66.6664 C 56.6672,290 83.3328,290 103.3332,290 c 20.0004,0 33.33347,0 40.00013,-6.66666 6.66667,-6.66667 6.66667,-20.00001 0,-26.66668 C 136.66667,250 123.3336,250 110,250 96.6664,250 83.3332,250 76.6666,243.3334 70,236.6668 70,223.3336 70,203.3332 c 0,-20.0004 0,-46.66617 0,-66.66644 0,-20.00028 0,-33.33341 6.666676,-40.000085 C 83.333353,90 96.666603,90 110,90 c 13.3334,0 26.66667,0 40,0 z"
       id="path2"
       transform="translate(40,39.999735)" />
    <path
       id="path4"
       style="fill:#000000;fill-rule:evenodd;-inkscape-stroke:none"
       d="m 271.33398,91.999735 c -13.33346,0 -26.66718,-6.5e-4 -33.33398,6.666016 -6.6668,6.666669 -6.66602,20.001169 -6.66602,46.667959 L 230,329.99973 h 40 c 0,-20 1.33334,-118 8,-128 6.66667,-10 20.00129,-10 26.66796,0 6.66666,10 5.33204,108 5.33204,128 h 40 l 1.33398,-179.33203 c 0.19836,-26.6663 6.4e-4,-42.66781 -6.66602,-50.667965 -6.66667,-8.00016 -20.00051,-8 -33.33398,-8 z m 20,41.666015 c 4.99995,-2e-5 10.00058,1.66667 13.33398,5 6.6668,6.66666 6.66667,20.00116 0,26.66796 -6.66666,6.6668 -20.0013,6.66667 -26.66796,0 -6.66667,-6.66666 -6.66667,-20.00116 0,-26.66796 3.33333,-3.3334 8.33403,-4.99998 13.33398,-5 z" />
    <path
       id="path6"
       style="fill:#000000;fill-rule:evenodd;-inkscape-stroke:none"
       d="m 390,169.99973 v 160 h 40 c 0,-26.66667 -6.5e-4,-53.33306 6.66602,-60 6.66666,-6.66694 20.00116,6.66654 26.66796,20 6.6668,13.33346 6.66602,26.66668 6.66602,40 h 40 c 0,-13.33332 6.5e-4,-26.66654 -6.66602,-40 -6.66666,-13.33346 -19.99986,-26.66717 -20,-33.33398 -1.3e-4,-6.6668 13.3332,-6.66667 20,-20 6.6668,-13.33334 6.66673,-45.04813 -4.14257,-55.85743 -10.8093,-10.8093 -40.46228,-10.80859 -62.00977,-10.80859 z m 54.0005,26.13769 c 4.8136,-0.0968 9.82618,0.72331 14.20118,2.18164 10,3.33334 16.66803,9.99928 16.66796,16.66602 -6e-5,6.66674 -6.66783,13.33268 -16.66796,16.66602 -10.00014,3.33333 -23.33334,3.33476 -30,-3.33204 -6.66667,-6.6668 -6.6668,-20.0013 0,-26.66796 3.75007,-3.75 9.60992,-5.38917 15.79882,-5.51368 z" />
    <path
       style="fill:#000000;fill-rule:evenodd;-inkscape-stroke:none"
       d="m 350,50 c 0,0 360,0 360,0 0,0 0,40 0,40 -40,0 -76.29935,0 -105.43312,0 -29.13376,0 -44.03984,0 -49.30336,5.26352 C 550,100.52704 550,114.42353 550,148.87843 c 0,34.4549 0,87.78824 0,141.12157 0,0 -40,0 -40,0 0,-53.33333 0,-97.93472 0,-136.72552 0,-38.7908 0,-53.783081 -4.7457,-58.528781 C 500.5086,90 484.54879,90 455.45121,90 426.35364,90 390,90 350,90 Z"
       id="path8"
       transform="translate(40,39.999735)" />
    <path
       style="fill:#000000;fill-rule:evenodd;-inkscape-stroke:none"
       d="m 590,130 c 40,0 80,0 120,0 0,13.33333 0,26.66649 -6.66675,33.33324 C 696.66649,170 683.33324,170 672.66663,170 c -10.66662,0 -18.6666,0 -25.33329,0 -6.66669,0 -11.99998,0 -14.66666,4.00002 C 630,178.00004 630,187.23842 632.25386,190.61921 634.50772,194 640.1039,194 650.42207,194 c 10.31818,0 22.2446,0 35.57793,0 0,10.66667 0,21.33333 0,32 -13.33333,0 -26.66667,0 -36.2814,0 -9.61474,0 -15.21093,0 -17.46477,3.38075 C 630,232.76151 630,241.99994 632.66668,245.99997 635.33337,250 640.66663,250 647.33334,250 c 6.66671,0 14.6667,0 25.33335,0 10.66664,0 23.99991,0 30.66661,6.6667 C 710,263.3334 710,276.66667 710,290 c -40,0 -80,0 -120,0 z"
       id="path10"
       transform="translate(40,39.999735)" />
    <path
       style="fill:#000000;fill-rule:evenodd;-inkscape-stroke:none"
       d="m 750,50 c 0,66.66667 0,133.33333 0,173.33346 0,40.00014 0,53.33321 6.6668,59.99988 C 763.3336,290 776.66667,290 796.66693,290 c 20.00027,0 46.6664,0 73.33307,0 0,0 0,-40 0,-40 -13.33333,0 -26.66667,0 -40.00014,0 -13.33346,0 -26.66653,0 -33.3332,-6.6668 C 790,236.6664 790,223.33333 790,196.66626 790,169.9992 790,130 790,103.3332 790,76.6664 790,63.333333 783.3332,56.666666 776.6664,50 763.33333,50 750,50 Z"
       id="path11"
       transform="translate(40,39.999735)" />
  </g>
</svg>
